PathFileType	4	(X/Y/Z)	Patient4_TMGait_0pt4_01_right_29.trc.trc
DataRate	CameraRate	NumFrames	NumMarkers	Units	OrigDataRate	OrigDataStartFrame	OrigNumFrames
74.074074074074	74.074074074074	4	33	mm	74.074074074074	89	       141
Frame#	Time	Sacral			L.Shoulder			Chest			R.Shoulder			Neck			R.ASIS			L.ASIS			R.Thigh.Superior			R.Thigh.Lateral			R.Thigh.Inferior			R.Patella			L.Thigh.Superior			L.Thigh.Lateral			L.Thigh.Inferior			L.Patella			L.Shank.Superior			L.Shank.Lateral			L.Shank.Inferior			R.Shank.Superior			R.Shank.Lateral			R.Shank.Inferior			R.Heel			R.Midfoot.Superior			R.Midfoot.Lateral			R.Toe			L.Heel			L.Midfoot.Lateral			L.Midfoot.Superior			L.Toe			L.Elbow			L.Wrist			R.Elbow			R.Wrist			
		X1	Y1	Z1	X2	Y2	Z2	X3	Y3	Z3	X4	Y4	Z4	X5	Y5	Z5	X6	Y6	Z6	X7	Y7	Z7	X8	Y8	Z8	X9	Y9	Z9	X10	Y10	Z10	X11	Y11	Z11	X12	Y12	Z12	X13	Y13	Z13	X14	Y14	Z14	X15	Y15	Z15	X16	Y16	Z16	X17	Y17	Z17	X18	Y18	Z18	X19	Y19	Z19	X20	Y20	Z20	X21	Y21	Z21	X22	Y22	Z22	X23	Y23	Z23	X24	Y24	Z24	X25	Y25	Z25	X26	Y26	Z26	X27	Y27	Z27	X28	Y28	Z28	X29	Y29	Z29	X30	Y30	Z30	X31	Y31	Z31	X32	Y32	Z32	X33	Y33	Z33	

89	38.598000000000	917.555174484521	998.557886531177	505.215692310914	1073.008703510933	1434.158895965737	316.934236948660	1187.707167494508	1370.222240782725	471.278692587432	1111.621207110816	1440.609102754970	650.113376036613	1065.338517917545	1494.052729923767	473.021484493728	1153.792495762694	940.023285767047	609.147627791638	1126.952409273528	965.533608395820	336.860705794052	1196.495732572800	736.926187386179	586.471903660738	1124.013689911644	626.776155943148	656.955611828536	1203.515908224239	569.749322139494	580.837849153311	1199.375206760706	462.660739696721	603.312335515388	1195.569756244743	760.515158023589	368.971693493883	1121.321159791374	635.445093800282	309.923620748581	1213.255237297890	566.529492034048	373.544609083791	1220.575049374953	495.837477700582	383.095294156522	1194.518446966176	421.287985701344	374.900261655892	1108.920503813385	305.795311530231	321.715176065541	1159.109098578758	194.563002239291	391.971570694905	1125.571520579073	392.193441835670	610.343814097638	1008.290826515823	343.875989903643	671.674542472820	999.601772647870	235.401256658161	620.345441520963	801.807660814652	152.708945014827	594.219315386801	973.499927235293	114.649685011435	632.922506844376	866.966813058761	100.634723064316	666.844829777537	1052.284131254814	33.762222111333	658.410803402065	1031.929846059695	38.530016732625	429.026468215487	1105.905001143614	36.730802364351	348.627366387830	1189.409667504891	96.986015383437	376.960797339187	1317.792069245851	43.776904027789	347.123394726445	1021.991659064980	1087.325974342737	195.121419334988	1130.516538213272	850.276523596390	157.422512902867	1086.889796899510	1100.282126962566	782.630932284065	1232.729488567601	886.224500100129	760.921805500479	
90	38.611500000000	916.083364844624	998.048286085124	502.003508962656	1074.132713625181	1433.824576952118	314.428242111324	1187.486285713105	1369.496089416297	469.589710310234	1110.264882192945	1439.983073841891	647.947218313530	1065.472128741481	1493.710100376701	470.542448076455	1151.968667887252	939.562604987905	607.000474775309	1126.378594035461	965.256217819104	334.471331291075	1200.702942221305	739.512459622781	584.074409618392	1132.376178915742	627.768613125301	655.479344035805	1213.756872172241	572.530103996538	579.423500979569	1211.665834371678	464.532634879944	602.322816778264	1194.019647983817	759.751119661890	366.591888933618	1119.274335897886	635.134071155307	307.643641901674	1210.484361737143	565.829343719364	371.658389681165	1217.269407435264	495.128273542683	381.421707166443	1190.971807505786	420.501602540375	373.390569505479	1104.875978398803	305.229752393981	320.575840837241	1154.300459345103	194.149876971865	391.514953193228	1136.524004191048	394.185422788075	609.440330756541	1017.786704169431	349.460682600679	670.934227053981	1006.153540718754	241.063039183721	620.356251063261	806.472597708813	167.782123733202	594.331881402423	975.704300998771	119.059279412107	633.477843216338	868.241983567836	111.642867479409	666.985466098790	1047.912640811202	32.524268142367	658.378734415960	1026.451439391005	38.401219740301	428.933024086194	1100.407702517174	36.598051531867	348.459383853818	1183.909805566858	96.872737579865	376.841687839122	1312.349198589036	43.707026310589	347.050895930277	1025.429472303179	1087.148526647341	190.870955957522	1140.005363992518	852.651475946672	154.623603133405	1080.333316315940	1099.574542210692	779.260618440609	1219.651732797515	880.532182479855	761.717366724044	
91	38.625000000000	914.540564047144	997.500254068861	498.964469932546	1075.065813861799	1433.430724218655	312.073999160341	1187.101570395650	1368.756223148941	468.045765123386	1108.737540795722	1439.333108793770	645.924863568486	1065.503191061566	1493.353609800088	468.198712129239	1150.043784852084	939.126412678615	605.008960089827	1125.670630939646	964.949294314964	332.252321452960	1204.704349431651	742.438853753675	581.715761418006	1140.507751819341	629.177425692754	653.968675903903	1223.689262313153	575.867389561612	577.933091844175	1223.779624968679	467.030939849057	601.052450687301	1192.447532049357	759.032943196794	364.338281110758	1117.206427160307	634.824975951970	305.491105826156	1207.748314923917	565.148875570938	369.852071708610	1214.021059952808	494.435279069612	379.840374166282	1187.466937502283	419.732480979888	371.967358228081	1100.859260086255	304.706975109560	319.498370085014	1149.517459944160	193.748207514437	391.073359784101	1147.488544437233	396.682458649834	608.285097127425	1027.540591945795	355.319554702913	670.038927280004	1013.146297157913	247.052727994582	620.140079150758	812.167902290906	182.955427243599	594.156755408972	978.525870124894	123.968332012122	633.779279901122	870.446215777062	123.100307233815	666.931810766273	1044.088722033683	31.305062323376	658.386569549237	1020.996999600897	38.291274247020	428.830970279766	1094.936352595478	36.486437036228	348.289234109295	1178.434880006076	96.779525365510	376.713490783030	1306.924854077673	43.661321947553	346.968823622413	1029.165194770549	1086.916443654958	186.687715860822	1149.707128321534	855.117502181436	152.029055524303	1073.604897149665	1098.885182939480	775.961541410009	1206.076337278465	875.049824958432	762.737497779731	
92	38.638500000000	912.953220510888	996.984548519862	496.101873694250	1075.809291090174	1433.045785695090	309.877530219817	1186.556882734543	1368.079288586708	466.650898684932	1107.036379640134	1438.729620934054	644.045292891405	1065.424392358463	1493.042295003199	465.998006552417	1148.060431700478	938.804123590743	603.186483636066	1124.851187932888	964.653460243986	330.228171590664	1208.391821496797	745.692594546030	579.417289844259	1148.220720714465	631.022715343074	652.420518977413	1233.095373181137	579.744406924133	576.360612666091	1235.484487556833	470.130768258429	599.548611199772	1190.859934041161	758.356083301211	362.194148968995	1115.057791614175	634.525548730962	303.511559600607	1204.999777828137	564.484148512464	368.146513372341	1210.781182293251	493.768030231563	378.385380653837	1183.959018445972	419.001127715050	370.663146285366	1096.835576003063	304.241569668690	318.507362133126	1144.743213198328	193.368436426170	390.658175981444	1158.231966773985	399.674847120342	606.929306621211	1037.295355085180	361.358718001187	668.980641762228	1020.440192466756	253.223079332332	619.704148878117	818.720989528211	197.677048836975	593.670285227077	981.988571195874	129.238244584766	633.822310623593	873.573095626516	134.570723447781	666.656771361571	1041.109231588642	30.255720607273	658.436290408967	1015.561515574555	38.202012604313	428.724981596560	1089.486713828526	36.396850564428	348.123700921349	1172.982576821978	96.706329475756	376.580715539129	1301.514139090281	43.631605709693	346.880811666721	1033.195215966407	1086.695533191848	182.631218256791	1159.547719130950	857.704260025862	149.697089303304	1066.784478129014	1098.290583127897	772.749954681625	1192.075035112710	869.877662297015	763.935707050473	
